<?xml version="1.0" encoding="utf-8"?>
<!-- Generator: Adobe Illustrator 19.0.0, SVG Export Plug-In . SVG Version: 6.00 Build 0)  -->
<svg version="1.1" id="图层_1" xmlns:sketch="http://www.bohemiancoding.com/sketch/ns"
	 xmlns="http://www.w3.org/2000/svg" xmlns:xlink="http://www.w3.org/1999/xlink" x="0px" y="0px" viewBox="-194 337 411 127"
	 style="enable-background:new -194 337 411 127;" xml:space="preserve">
<style type="text/css">
	.st0{fill:#36434F;}
	.st1{fill:#3CA0C2;}
</style>
<title>Imported Layers</title>
<desc>Created with Sketch.</desc>
<g id="Page-1" sketch:type="MSPage">
	<g id="Imported-Layers" sketch:type="MSLayerGroup">
		<path id="Fill-1" sketch:type="MSShapeGroup" class="st0" d="M-54,394h47v9h-47V394z M-6,360h-47v-8H4v25h2v30.4
			c0,4.8-1.6,6.6-5.9,6.6H-22v-8h16.8c0.9,0,1.2,0,1.2-1.3V386h-43.6c-3.9,0-5.4-2-5.4-7v-15h10v12c0,1.1,0.5,2,1.6,1H-6V360L-6,360
			z"/>
		<path id="Fill-2" sketch:type="MSShapeGroup" class="st0" d="M15,360v-7h62v7h-3v23h3v7h-3v16c0,4.5-1.5,7-4.7,6H60v-6h2.9
			c0.7,0,1.1-0.4,1.1-1.8V390H15v-7h49v-23H15L15,360z M54,410H16v-17h44v10.6C60,408.1,58.3,410,54,410L54,410z M16,363h44v10.9
			c1,4.8-1.6,7.1-7.3,6.1H16V363L16,363z M26,403h22.9c0.9,0,1.1-0.4,1.1-1.3V400H26V403L26,403z M26,373h22.1
			c1.4,0,1.9-0.3,1.9-1.5V371H26V373L26,373z"/>
		<path id="Fill-3" sketch:type="MSShapeGroup" class="st0" d="M82,362v-7h12v-4h9v4h10v7h-10v7h10v8H96.7l-0.8,2H112v8.8l-2.5,4.2
			h3.5v8h-4v3.9c0,5.5-2.2,8.1-7,8.1H85v-7h13.5c1.1,0,1.5-0.6,1.5-1.6V400H82v-8h17.3l2.4-5h-8c-1.3,1-2.9,2-5.1,2H82v-8h1.5
			c0.7,0,1.4-0.4,2.1-1.3l0.8-2.7H82v-8h12v-7H82L82,362z M114.6,373h10.7l3.5,8.2l3.8-12.2h11l-8.8,24.7l4.6,10.5
			c0.7,2,1.7,2.8,2.9,2.8h2.8v7h-8.4c-2,0-3.6-1.3-4.8-3.6l-2.4-4.1l-2.1,4.4c-0.9,2-2.4,3.3-4.6,3.3H114v-7h3
			c1.2,0,2.2-0.9,2.9-2.5l3.8-10.7L114.6,373L114.6,373z M114,370v-7h1.2c1.1,0,1.8-0.4,2.1-1.6l2.4-9.4h9.1l-1.1,4H145v7h-18.9
			l-1.1,4.4c-0.9,1.8-2.5,2.6-4.8,2.6H114L114,370z"/>
		<path id="Fill-4" sketch:type="MSShapeGroup" class="st0" d="M152,414v-7h1.5c0.9,0,1.5-1,1.5-2.6V376h57v27.9
			c1,6.6-1.7,10.1-7,9.1h-26v-7h21.1c1.1,0,1.9,0,1.9-1.3V403h-37v3c0,5.4-2.5,8-8,8H152L152,414z M152,362v-8h26v-3h10v3h26v8
			h-43.3l-3.8,4h34c1.1,0,2-0.6,2-1.5V363h9v4.2c1,4.6-1.1,6.8-7,5.8h-50v-6.9l3.3-4.1H152L152,362z M165,386h37v-3h-37V386z
			 M165,396h37v-3h-37V396z"/>
		<path id="Fill-5" sketch:type="MSShapeGroup" class="st0" d="M-54,438v-1h23v1h-12v7.9l2-0.2v1.7l-2,0.2v2.5h-2v-2.1
			c-3,0.5-5,0.8-9,1V447c1,0,0.9,0,1.3,0h0.7v-9H-54L-54,438z M-51,435v-7h17v4.5c0,2.1-0.7,3.5-2.7,2.5H-51L-51,435z M-49,440h4v-2
			h-4V440z M-49,443h4v-1h-4V443z M-49,446.8c0-0.1,2-0.2,3.5-0.4c-1,0.1-1.5,0.1,0.5-0.1V445h-4V446.8L-49,446.8z M-48,431h11v-1
			h-11V431z M-48,434h10.2c0.7,0,0.8-0.4,0.8-1.2v0.2h-11V434L-48,434z M-42,450v-1.8c1-0.1,0.7-0.3,1.1-0.4c1-0.5,1.8-1,2.3-1.3
			c-1.2-1-2-2.4-2.8-4.4h2.8c0.5,1,1.1,2.2,1.8,3c0.8-0.8,1.4-2,1.9-3H-42v-2h10v1.7c-1,2-1.6,3.6-2.9,4.9c1,0.5,1.9,1,3.9,1.6v1.8
			c-3-0.6-4.3-1.4-5.7-2.2C-38,448.6-40,449.3-42,450L-42,450z"/>
		<path id="Fill-6" sketch:type="MSShapeGroup" class="st0" d="M-28,432v-2h6.1l0.6-3h3.4c-0.2,1-0.4,2-0.6,3H-7v2h-12.3
			c-0.1,0-0.4,1.2-0.8,2.1c-0.2,0.4-0.3-0.1-0.4,0.9H-6v2h-15.4c-0.5,0-1,1-1.6,2H-8v2.3c-2,2.2-3.8,3.9-5.5,5
			c0.5,0.1,1.3,0.4,2.2,0.7c0.5,0.2,0.3,0.3,1.3,0.4v2.7c-5-1.8-10-3.2-15-4.4v-2.1c3,0.5,6,0.9,8.8,1.7c1.3-0.9,2.6-2.2,4-4.2H-26
			v-1.7c1-0.9,1.1-2.3,1.5-2.3H-29v-2h5.5c0.1-1,0.4-1,0.7-1.7c0.1-0.6,0.3-1.3,0.4-1.3H-28"/>
		<path id="Fill-7" sketch:type="MSShapeGroup" class="st0" d="M-4,449v-2h7v-19h3v19h3v-19h3v19h6v2H-4L-4,449z M-1.4,442
			c-0.8,0-1.5-6-2-10h2.9c0.2,3,0.8,6,1.8,10H-1.4L-1.4,442z M13.3,442c0.8,0,1.4-7,1.7-10H18c-0.5,4-1.2,8-2,10H13.3L13.3,442z"/>
		<path id="Fill-8" sketch:type="MSShapeGroup" class="st0" d="M22,449v-18h2.5c0.3-1,0.5-2,0.7-3h2.9c-0.2,1-0.4,2-0.7,3H31v14.8
			c0,2.1-0.8,3.2-2.8,3.2H22L22,449z M24,438h4v-5h-4V438z M24,447h3.2c0.8,0,0.8-0.3,0.8-1.3V440h-4V447L24,447z M36,449v-1h2.4
			c1,0,1.6-0.9,1.6-1.9V432h-4.2c-0.8,1-1.8,2.6-3.8,3.5v-1.8c1-1.2,2.1-3.6,2.3-5.6h2.9c-0.1,0-0.1,0.4-0.2,0.8
			c0,0.3-0.1,0.2-0.3,1.2H43v16.2c0,2.3-1.2,3.8-3.5,2.8H36L36,449z M34.7,443c-0.3,0-0.8-5-1.7-7h2.4c0.9,2,1.6,4,2,7H34.7
			L34.7,443z"/>
		<path id="Fill-9" sketch:type="MSShapeGroup" class="st0" d="M47,449v-21h3v19h11v2H47"/>
		<path id="Fill-10" sketch:type="MSShapeGroup" class="st0" d="M64,428h3v3h-3V428z M64,434h3v15h-3V434z"/>
		<path id="Fill-11" sketch:type="MSShapeGroup" class="st0" d="M70,449v-15h7.8c4.1,0,6.2,1.8,6.2,5.7v9.3h-3v-8.9
			c0-2.6-1.6-4.1-4-4.1h-3v13H70"/>
		<path id="Fill-12" sketch:type="MSShapeGroup" class="st0" d="M87,444v-10h3v9.6c0,2.7,1.4,4.4,4.1,3.4H97v-13h4v15h-8.2
			c-4.1,1-5.8-1.3-5.8-5.2"/>
		<path id="Fill-13" sketch:type="MSShapeGroup" class="st0" d="M102.3,449l5.9-7.5l-5.4-7.5h3.9l3.9,5.6l3.8-5.6h3.8l-5.3,7.5
			l5.7,7.5h-4l-4-5.5l-4.3,5.5H102"/>
		<path id="Fill-14" sketch:type="MSShapeGroup" class="st0" d="M120,434v-2h2v-4h3v4h2v2h-2v10.3c0,0,0.2,0,0.4-0.1
			c0.4-0.1,1.6-0.3,1.6-0.6v2.1c-2,1-4,1.6-7,1.7v-2.4c0,0,0.3,0,0.6-0.1c0.7-0.1,1.4-0.1,1.4-0.2V434H120L120,434z M127,438v-2h3.5
			c-0.5,0-0.8-2-1.1-4h2.9c0.1,2,0.4,3,0.9,4h3.1c0.5-1,0.7-2,0.9-4h2.9c-0.3,2-0.6,4-1.1,4h2.9v2H127L127,438z M128,431v-2h5v-1h4
			v1h5v2H128L128,431z M128,449v-8h13v5.4c0,2.1-0.9,2.6-3.2,2.6H128L128,449z M131,448h5.8c0.9,0,1.2-0.9,1.2-1.8V443h-7V448
			L131,448z"/>
		<path id="Fill-15" sketch:type="MSShapeGroup" class="st0" d="M147,448.1V436h-2v-1h5v9.2c0-0.3,1-0.7,2-1.4v2.3
			C151,446.5,149,447.5,147,448.1L147,448.1z M147.5,433c-0.3,0-0.8-3-1.7-5h2.7c0.9,1,1.5,3,1.8,5H147.5L147.5,433z M151,450.1
			v-1.8c2-1.1,2-2.9,2-5.5V428h3v14.5C156,446.2,155,448.7,151,450.1L151,450.1z M158,429h3v19h-3V429z M164,428h2v22h-2V428z"/>
		<path id="Fill-16" sketch:type="MSShapeGroup" class="st0" d="M170,433v-2h3v-3h2v3h3v2h-2.5c0.6,2,1.5,4.3,2.5,6.1v2.7
			c-1-0.9-2-2.1-3-3.6V450h-2v-10.2c-1,1.7-2,3.5-4,5.4v-3c2-2.9,2.9-6.2,3.5-9.2H170L170,433z M177,450v-2.3c2-1.5,2-4.5,2-8.9V429
			h10v17.4c-1,0.7-0.1,1,0.5,1c0.6,0,0.5-0.3,0.5-1V446h2v0.8c0,1.7-0.5,2.2-2.2,2.2h-1.5c-1.9,0-3.3-0.7-2.3-2.6V431h-4v7.5
			C182,444.1,181,447.9,177,450L177,450z"/>
		<path id="Fill-17" sketch:type="MSShapeGroup" class="st0" d="M195,433v-2h3v-3h3v3h2v2h-2.3c0.5,2,1.3,4,2.3,5.8v2.8
			c-1-0.9-1-2.1-2-3.6v12h-3v-10.3c-1,1.8-2,3.7-4,5.6v-2.9c2-3,3.1-6.4,3.7-9.4H195L195,433z M210,450v-2h2.2c1,0,1.8-0.8,1.8-1.6
			V432h-6.7c-0.7,1-2.3,2.3-4.3,3.2v-1.7c2-1.3,2.6-3.4,2.7-5.4h2.9c-0.1,0-0.3,1-0.5,2h7.9v16.2c0,2.3-0.7,3.8-3,3.8H210L210,450z
			 M204,445v-2.4c1-2.5,1.3-5.6,1.7-7.6h2.7c-0.5,2-1.4,5.3-2.5,7.8c1.7,0,3,0,3.8-0.2c-0.3-1.9-0.5-3.6-0.8-4.6h2c0.5,2,1,5,1.4,7
			h-2.2l-0.1-0.9c-1.4,0.4-2.9,0.9-4.5,0.9H204L204,445z"/>
		<path id="Fill-18" sketch:type="MSShapeGroup" class="st1" d="M-121,337h-34.9c-20.7,0-37.4,16.9-37.4,37.6l0,40.7
			c0,20.7,16.8,37.7,37.4,37.7h29.9c9.5-1,17.1-8.8,17.1-18.4v-51.7c0-9.9-8.1-17.9-18-17.9h-5v31.9c0,3.7-2.8,6.6-6.5,6.6
			s-6.5-3-6.5-6.6V365h-4.8c-9.9,0-18.2,7.9-18.2,17.9v26.8c0,9.6,7.8,17.3,17.3,18.3h19.7c0,0,0.1-0.2,0.1-0.2
			c3.4,0,6.2,2.7,6.2,6.2c0,3.5-2.8,6.1-6.2,6.1c0,0-0.1-0.1-0.1-0.1h-19.7l0.1,0.1c-16.4-0.5-29.4-13.9-29.4-30.4v-26.8
			c0-16.8,13.4-30.9,30.2-30.9h22.7c16.8,0,30,14.1,30,30.9v51c0,14.6-9.8,26.7-23.5,29.8c20.5-0.2,37.5-16.9,37.5-37.4v-51.5
			c0-20.7-17.2-37.7-37.8-37.7"/>
	</g>
</g>
</svg>
